<?xml version="1.0" encoding="UTF-8" standalone="no"?>
<!DOCTYPE svg PUBLIC "-//W3C//DTD SVG 1.1//EN" "http://www.w3.org/Graphics/SVG/1.1/DTD/svg11.dtd">
<svg width="100%" height="100%" viewBox="0 0 1095 1254" version="1.1" xmlns="http://www.w3.org/2000/svg" xmlns:xlink="http://www.w3.org/1999/xlink" xml:space="preserve" xmlns:serif="http://www.serif.com/" style="fill-rule:evenodd;clip-rule:evenodd;stroke-linejoin:round;stroke-miterlimit:2;">
    <g id="Artboard1" transform="matrix(0.872688,0,0,1,0,0)">
        <rect x="0" y="0" width="1254" height="1254" style="fill:none;"/>
        <g transform="matrix(2.006037,0,0,1.750645,-732.48969,-224.654049)">
            <g transform="matrix(1,0,0,0.915142,50.69932,-70.652974)">
                <path d="M628,226.5C628,692.16 628.09,723.07 629.46,723.73C630.07,724.08 627.46,723.63 627.07,723.4C589.61,702.13 552,679.16 514.75,657.62L512,652.95C511.58,590.93 512.85,526.1 511.36,464.95L348.25,564.71C343.37,566.19 338.05,563.95 337.05,559.25L337,417.61C340.37,393.17 363.07,387.75 379.25,375.82L617.04,228.53C620.18,227.63 623.22,226.04 628,226.5Z" style="fill:rgb(6,176,253);fill-rule:nonzero;"/>
            </g>
            <g transform="matrix(1,0,0,0.915142,50.69932,-70.652974)">
                <path d="M629.46,723.73C628.09,723.07 628,692.16 628,226.5C640.21,227.7 646.31,235.59 655.25,240.1C706.35,272.59 763.04,304.52 813.75,337.39L904.02,394.16C910.06,399.58 915.96,407.63 917,418.59L916.98,559.25C915.16,564.1 911.36,565.97 905.75,564.68L744.02,465.5L742.51,465.5L742.25,652.25L739.84,657.14C703.98,679 666.74,702.37 629.46,723.73Z" style="fill:rgb(0,87,252);fill-rule:nonzero;"/>
            </g>
        </g>
        <g transform="matrix(2.006037,0,0,1.750645,-732.48969,-224.654049)">
            <g transform="matrix(1,0,0,0.915142,50.69932,-70.652974)">
                <path d="M628.25,827.06L628.25,991.17C627.5,990.88 624.54,990.42 622.8,990.49C533.28,935.59 442.64,879.23 351.25,825.51C344.67,820.73 338.96,812.44 337.03,802.25L337,663.07C337.84,658.31 342.53,655.43 348.21,657.04L628.25,827.06Z" style="fill:rgb(6,176,253);fill-rule:nonzero;"/>
            </g>
            <g transform="matrix(1,0,0,0.915142,50.69932,-70.652974)">
                <path d="M907.25,656.81L911,656.86C914.26,657.31 916.15,660.18 917,662.97L917,800.89C915.93,810.97 909.26,820.55 903.25,825.1L635.23,989.65C634.5,990.17 630.64,990.89 628.25,991.17L628.25,827.06L907.25,656.81Z" style="fill:rgb(0,87,252);fill-rule:nonzero;"/>
            </g>
        </g>
        <g transform="matrix(1.145884,0,0,0.915142,-33.373952,-70.652974)">
            <path d="M907.25,656.81L911,656.86L907.25,656.81Z" style="fill:rgb(6,176,253);fill-rule:nonzero;"/>
        </g>
    </g>
</svg>
